<svg width="408" height="144" viewBox="0 0 408 144" fill="none" xmlns="http://www.w3.org/2000/svg">
<mask id="path-1-outside-1_196_71" maskUnits="userSpaceOnUse" x="144" y="50" width="264" height="66" fill="black">
<rect fill="white" x="144" y="50" width="264" height="66"/>
<path d="M196.364 71.5682L183.068 72.3864C182.841 71.25 182.352 70.2273 181.602 69.3182C180.852 68.3864 179.864 67.6477 178.636 67.1023C177.432 66.5341 175.989 66.25 174.307 66.25C172.057 66.25 170.159 66.7273 168.614 67.6818C167.068 68.6136 166.295 69.8636 166.295 71.4318C166.295 72.6818 166.795 73.7386 167.795 74.6023C168.795 75.4659 170.511 76.1591 172.943 76.6818L182.42 78.5909C187.511 79.6364 191.307 81.3182 193.807 83.6364C196.307 85.9545 197.557 89 197.557 92.7727C197.557 96.2045 196.545 99.2159 194.523 101.807C192.523 104.398 189.773 106.42 186.273 107.875C182.795 109.307 178.784 110.023 174.239 110.023C167.307 110.023 161.784 108.58 157.67 105.693C153.58 102.784 151.182 98.8295 150.477 93.8295L164.761 93.0795C165.193 95.1932 166.239 96.8068 167.898 97.9205C169.557 99.0114 171.682 99.5568 174.273 99.5568C176.818 99.5568 178.864 99.0682 180.409 98.0909C181.977 97.0909 182.773 95.8068 182.795 94.2386C182.773 92.9205 182.216 91.8409 181.125 91C180.034 90.1364 178.352 89.4773 176.08 89.0227L167.011 87.2159C161.898 86.1932 158.091 84.4205 155.591 81.8977C153.114 79.375 151.875 76.1591 151.875 72.25C151.875 68.8864 152.784 65.9886 154.602 63.5568C156.443 61.125 159.023 59.25 162.341 57.9318C165.682 56.6136 169.591 55.9545 174.068 55.9545C180.682 55.9545 185.886 57.3523 189.682 60.1477C193.5 62.9432 195.727 66.75 196.364 71.5682ZM230.361 110.023C225.065 110.023 220.486 108.898 216.622 106.648C212.781 104.375 209.815 101.216 207.724 97.1705C205.634 93.1023 204.588 88.3864 204.588 83.0227C204.588 77.6136 205.634 72.8864 207.724 68.8409C209.815 64.7727 212.781 61.6136 216.622 59.3636C220.486 57.0909 225.065 55.9545 230.361 55.9545C235.656 55.9545 240.224 57.0909 244.065 59.3636C247.929 61.6136 250.906 64.7727 252.997 68.8409C255.088 72.8864 256.134 77.6136 256.134 83.0227C256.134 88.3864 255.088 93.1023 252.997 97.1705C250.906 101.216 247.929 104.375 244.065 106.648C240.224 108.898 235.656 110.023 230.361 110.023ZM230.429 98.7727C232.838 98.7727 234.849 98.0909 236.463 96.7273C238.077 95.3409 239.293 93.4545 240.111 91.0682C240.952 88.6818 241.372 85.9659 241.372 82.9205C241.372 79.875 240.952 77.1591 240.111 74.7727C239.293 72.3864 238.077 70.5 236.463 69.1136C234.849 67.7273 232.838 67.0341 230.429 67.0341C227.997 67.0341 225.952 67.7273 224.293 69.1136C222.656 70.5 221.418 72.3864 220.577 74.7727C219.759 77.1591 219.349 79.875 219.349 82.9205C219.349 85.9659 219.759 88.6818 220.577 91.0682C221.418 93.4545 222.656 95.3409 224.293 96.7273C225.952 98.0909 227.997 98.7727 230.429 98.7727ZM265.577 109V56.6364H279.418V65.875H280.031C281.122 62.8068 282.94 60.3864 285.486 58.6136C288.031 56.8409 291.077 55.9545 294.622 55.9545C298.213 55.9545 301.27 56.8523 303.793 58.6477C306.315 60.4205 307.997 62.8295 308.838 65.875H309.384C310.452 62.875 312.384 60.4773 315.179 58.6818C317.997 56.8636 321.327 55.9545 325.168 55.9545C330.054 55.9545 334.02 57.5114 337.065 60.625C340.134 63.7159 341.668 68.1023 341.668 73.7841V109H327.179V76.6477C327.179 73.7386 326.406 71.5568 324.861 70.1023C323.315 68.6477 321.384 67.9205 319.065 67.9205C316.429 67.9205 314.372 68.7614 312.895 70.4432C311.418 72.1023 310.679 74.2955 310.679 77.0227V109H296.599V76.3409C296.599 73.7727 295.861 71.7273 294.384 70.2045C292.929 68.6818 291.009 67.9205 288.622 67.9205C287.009 67.9205 285.554 68.3295 284.259 69.1477C282.986 69.9432 281.974 71.0682 281.224 72.5227C280.474 73.9545 280.099 75.6364 280.099 77.5682V109H265.577ZM376.798 110.023C371.503 110.023 366.923 108.898 363.06 106.648C359.219 104.375 356.253 101.216 354.162 97.1705C352.071 93.1023 351.026 88.3864 351.026 83.0227C351.026 77.6136 352.071 72.8864 354.162 68.8409C356.253 64.7727 359.219 61.6136 363.06 59.3636C366.923 57.0909 371.503 55.9545 376.798 55.9545C382.094 55.9545 386.662 57.0909 390.503 59.3636C394.366 61.6136 397.344 64.7727 399.435 68.8409C401.526 72.8864 402.571 77.6136 402.571 83.0227C402.571 88.3864 401.526 93.1023 399.435 97.1705C397.344 101.216 394.366 104.375 390.503 106.648C386.662 108.898 382.094 110.023 376.798 110.023ZM376.866 98.7727C379.276 98.7727 381.287 98.0909 382.901 96.7273C384.514 95.3409 385.73 93.4545 386.548 91.0682C387.389 88.6818 387.81 85.9659 387.81 82.9205C387.81 79.875 387.389 77.1591 386.548 74.7727C385.73 72.3864 384.514 70.5 382.901 69.1136C381.287 67.7273 379.276 67.0341 376.866 67.0341C374.435 67.0341 372.389 67.7273 370.73 69.1136C369.094 70.5 367.855 72.3864 367.014 74.7727C366.196 77.1591 365.787 79.875 365.787 82.9205C365.787 85.9659 366.196 88.6818 367.014 91.0682C367.855 93.4545 369.094 95.3409 370.73 96.7273C372.389 98.0909 374.435 98.7727 376.866 98.7727Z"/>
</mask>
<path d="M196.364 71.5682L183.068 72.3864C182.841 71.25 182.352 70.2273 181.602 69.3182C180.852 68.3864 179.864 67.6477 178.636 67.1023C177.432 66.5341 175.989 66.25 174.307 66.25C172.057 66.25 170.159 66.7273 168.614 67.6818C167.068 68.6136 166.295 69.8636 166.295 71.4318C166.295 72.6818 166.795 73.7386 167.795 74.6023C168.795 75.4659 170.511 76.1591 172.943 76.6818L182.42 78.5909C187.511 79.6364 191.307 81.3182 193.807 83.6364C196.307 85.9545 197.557 89 197.557 92.7727C197.557 96.2045 196.545 99.2159 194.523 101.807C192.523 104.398 189.773 106.42 186.273 107.875C182.795 109.307 178.784 110.023 174.239 110.023C167.307 110.023 161.784 108.58 157.67 105.693C153.58 102.784 151.182 98.8295 150.477 93.8295L164.761 93.0795C165.193 95.1932 166.239 96.8068 167.898 97.9205C169.557 99.0114 171.682 99.5568 174.273 99.5568C176.818 99.5568 178.864 99.0682 180.409 98.0909C181.977 97.0909 182.773 95.8068 182.795 94.2386C182.773 92.9205 182.216 91.8409 181.125 91C180.034 90.1364 178.352 89.4773 176.08 89.0227L167.011 87.2159C161.898 86.1932 158.091 84.4205 155.591 81.8977C153.114 79.375 151.875 76.1591 151.875 72.25C151.875 68.8864 152.784 65.9886 154.602 63.5568C156.443 61.125 159.023 59.25 162.341 57.9318C165.682 56.6136 169.591 55.9545 174.068 55.9545C180.682 55.9545 185.886 57.3523 189.682 60.1477C193.5 62.9432 195.727 66.75 196.364 71.5682ZM230.361 110.023C225.065 110.023 220.486 108.898 216.622 106.648C212.781 104.375 209.815 101.216 207.724 97.1705C205.634 93.1023 204.588 88.3864 204.588 83.0227C204.588 77.6136 205.634 72.8864 207.724 68.8409C209.815 64.7727 212.781 61.6136 216.622 59.3636C220.486 57.0909 225.065 55.9545 230.361 55.9545C235.656 55.9545 240.224 57.0909 244.065 59.3636C247.929 61.6136 250.906 64.7727 252.997 68.8409C255.088 72.8864 256.134 77.6136 256.134 83.0227C256.134 88.3864 255.088 93.1023 252.997 97.1705C250.906 101.216 247.929 104.375 244.065 106.648C240.224 108.898 235.656 110.023 230.361 110.023ZM230.429 98.7727C232.838 98.7727 234.849 98.0909 236.463 96.7273C238.077 95.3409 239.293 93.4545 240.111 91.0682C240.952 88.6818 241.372 85.9659 241.372 82.9205C241.372 79.875 240.952 77.1591 240.111 74.7727C239.293 72.3864 238.077 70.5 236.463 69.1136C234.849 67.7273 232.838 67.0341 230.429 67.0341C227.997 67.0341 225.952 67.7273 224.293 69.1136C222.656 70.5 221.418 72.3864 220.577 74.7727C219.759 77.1591 219.349 79.875 219.349 82.9205C219.349 85.9659 219.759 88.6818 220.577 91.0682C221.418 93.4545 222.656 95.3409 224.293 96.7273C225.952 98.0909 227.997 98.7727 230.429 98.7727ZM265.577 109V56.6364H279.418V65.875H280.031C281.122 62.8068 282.94 60.3864 285.486 58.6136C288.031 56.8409 291.077 55.9545 294.622 55.9545C298.213 55.9545 301.27 56.8523 303.793 58.6477C306.315 60.4205 307.997 62.8295 308.838 65.875H309.384C310.452 62.875 312.384 60.4773 315.179 58.6818C317.997 56.8636 321.327 55.9545 325.168 55.9545C330.054 55.9545 334.02 57.5114 337.065 60.625C340.134 63.7159 341.668 68.1023 341.668 73.7841V109H327.179V76.6477C327.179 73.7386 326.406 71.5568 324.861 70.1023C323.315 68.6477 321.384 67.9205 319.065 67.9205C316.429 67.9205 314.372 68.7614 312.895 70.4432C311.418 72.1023 310.679 74.2955 310.679 77.0227V109H296.599V76.3409C296.599 73.7727 295.861 71.7273 294.384 70.2045C292.929 68.6818 291.009 67.9205 288.622 67.9205C287.009 67.9205 285.554 68.3295 284.259 69.1477C282.986 69.9432 281.974 71.0682 281.224 72.5227C280.474 73.9545 280.099 75.6364 280.099 77.5682V109H265.577ZM376.798 110.023C371.503 110.023 366.923 108.898 363.06 106.648C359.219 104.375 356.253 101.216 354.162 97.1705C352.071 93.1023 351.026 88.3864 351.026 83.0227C351.026 77.6136 352.071 72.8864 354.162 68.8409C356.253 64.7727 359.219 61.6136 363.06 59.3636C366.923 57.0909 371.503 55.9545 376.798 55.9545C382.094 55.9545 386.662 57.0909 390.503 59.3636C394.366 61.6136 397.344 64.7727 399.435 68.8409C401.526 72.8864 402.571 77.6136 402.571 83.0227C402.571 88.3864 401.526 93.1023 399.435 97.1705C397.344 101.216 394.366 104.375 390.503 106.648C386.662 108.898 382.094 110.023 376.798 110.023ZM376.866 98.7727C379.276 98.7727 381.287 98.0909 382.901 96.7273C384.514 95.3409 385.73 93.4545 386.548 91.0682C387.389 88.6818 387.81 85.9659 387.81 82.9205C387.81 79.875 387.389 77.1591 386.548 74.7727C385.73 72.3864 384.514 70.5 382.901 69.1136C381.287 67.7273 379.276 67.0341 376.866 67.0341C374.435 67.0341 372.389 67.7273 370.73 69.1136C369.094 70.5 367.855 72.3864 367.014 74.7727C366.196 77.1591 365.787 79.875 365.787 82.9205C365.787 85.9659 366.196 88.6818 367.014 91.0682C367.855 93.4545 369.094 95.3409 370.73 96.7273C372.389 98.0909 374.435 98.7727 376.866 98.7727Z" fill="#FAF1DC"/>
<path d="M196.364 71.5682L196.671 76.5587L202.023 76.2294L201.321 70.9135L196.364 71.5682ZM183.068 72.3864L178.165 73.3669L179.021 77.6449L183.375 77.3769L183.068 72.3864ZM181.602 69.3182L177.707 72.4532L177.726 72.4768L177.745 72.5001L181.602 69.3182ZM178.636 67.1023L176.503 71.6244L176.554 71.6485L176.606 71.6713L178.636 67.1023ZM168.614 67.6818L171.195 71.9637L171.218 71.9499L171.241 71.9358L168.614 67.6818ZM167.795 74.6023L164.527 78.3864L164.527 78.3864L167.795 74.6023ZM172.943 76.6818L171.892 81.5702L171.924 81.577L171.956 81.5834L172.943 76.6818ZM182.42 78.5909L183.426 73.6931L183.417 73.6912L183.408 73.6894L182.42 78.5909ZM193.807 83.6364L190.407 87.3027L190.407 87.3027L193.807 83.6364ZM194.523 101.807L190.582 98.7299L190.573 98.7407L190.565 98.7516L194.523 101.807ZM186.273 107.875L188.176 112.498L188.184 112.495L188.192 112.492L186.273 107.875ZM157.67 105.693L154.773 109.768L154.786 109.777L154.799 109.786L157.67 105.693ZM150.477 93.8295L150.215 88.8364L144.765 89.1226L145.526 94.5272L150.477 93.8295ZM164.761 93.0795L169.66 92.0787L168.798 87.8607L164.499 88.0864L164.761 93.0795ZM167.898 97.9205L165.111 102.072L165.131 102.085L165.151 102.098L167.898 97.9205ZM180.409 98.0909L183.081 102.317L183.089 102.312L183.097 102.307L180.409 98.0909ZM182.795 94.2386L187.795 94.3111L187.796 94.2318L187.795 94.1524L182.795 94.2386ZM181.125 91L178.021 94.9202L178.047 94.9403L178.072 94.9601L181.125 91ZM176.08 89.0227L177.06 84.1198L177.057 84.1191L176.08 89.0227ZM167.011 87.2159L166.031 92.1188L166.034 92.1195L167.011 87.2159ZM155.591 81.8977L152.023 85.401L152.031 85.4091L152.039 85.4172L155.591 81.8977ZM154.602 63.5568L150.616 60.539L150.607 60.5509L150.598 60.5628L154.602 63.5568ZM162.341 57.9318L160.506 53.2807L160.495 53.2851L162.341 57.9318ZM189.682 60.1477L186.717 64.1736L186.722 64.1778L186.728 64.182L189.682 60.1477ZM196.364 71.5682L196.057 66.5776L182.761 67.3958L183.068 72.3864L183.375 77.3769L196.671 76.5587L196.364 71.5682ZM183.068 72.3864L187.971 71.4058C187.579 69.4464 186.725 67.6704 185.459 66.1363L181.602 69.3182L177.745 72.5001C177.98 72.7842 178.103 73.0536 178.165 73.3669L183.068 72.3864ZM181.602 69.3182L185.497 66.1831C184.19 64.5592 182.531 63.3615 180.667 62.5332L178.636 67.1023L176.606 71.6713C177.197 71.9339 177.514 72.2135 177.707 72.4532L181.602 69.3182ZM178.636 67.1023L180.769 62.5801C178.746 61.6259 176.538 61.25 174.307 61.25V66.25V71.25C175.439 71.25 176.117 71.4423 176.503 71.6244L178.636 67.1023ZM174.307 66.25V61.25C171.35 61.25 168.49 61.8813 165.986 63.4278L168.614 67.6818L171.241 71.9358C171.828 71.5733 172.764 71.25 174.307 71.25V66.25ZM168.614 67.6818L166.032 63.3999C163.254 65.0747 161.295 67.8189 161.295 71.4318H166.295H171.295C171.295 71.4539 171.292 71.5287 171.262 71.6375C171.232 71.7485 171.184 71.8559 171.128 71.9473C171.012 72.1351 170.95 72.1114 171.195 71.9637L168.614 67.6818ZM166.295 71.4318H161.295C161.295 74.2267 162.499 76.6346 164.527 78.3864L167.795 74.6023L171.064 70.8182C171.022 70.7825 171.106 70.8451 171.19 71.0236C171.278 71.2093 171.295 71.3694 171.295 71.4318H166.295ZM167.795 74.6023L164.527 78.3864C166.506 80.0956 169.246 81.0013 171.892 81.5702L172.943 76.6818L173.994 71.7935C172.97 71.5733 172.224 71.3435 171.705 71.1339C171.168 70.917 171.019 70.7795 171.064 70.8182L167.795 74.6023ZM172.943 76.6818L171.956 81.5834L181.433 83.4925L182.42 78.5909L183.408 73.6894L173.931 71.7803L172.943 76.6818ZM182.42 78.5909L181.415 83.4887C186.044 84.4393 188.841 85.8507 190.407 87.3027L193.807 83.6364L197.207 79.97C193.772 76.7857 188.979 74.8334 183.426 73.6931L182.42 78.5909ZM193.807 83.6364L190.407 87.3027C191.772 88.5683 192.557 90.2269 192.557 92.7727H197.557H202.557C202.557 87.7731 200.842 83.3408 197.207 79.97L193.807 83.6364ZM197.557 92.7727H192.557C192.557 95.1424 191.886 97.0587 190.582 98.7299L194.523 101.807L198.464 104.884C201.205 101.373 202.557 97.2667 202.557 92.7727H197.557ZM194.523 101.807L190.565 98.7516C189.176 100.551 187.178 102.084 184.354 103.258L186.273 107.875L188.192 112.492C192.367 110.757 195.87 108.245 198.481 104.862L194.523 101.807ZM186.273 107.875L184.369 103.252C181.608 104.389 178.264 105.023 174.239 105.023V110.023V115.023C179.304 115.023 183.983 114.225 188.176 112.498L186.273 107.875ZM174.239 110.023V105.023C167.955 105.023 163.55 103.71 160.542 101.6L157.67 105.693L154.799 109.786C160.018 113.449 166.659 115.023 174.239 115.023V110.023ZM157.67 105.693L160.568 101.618C157.604 99.5105 155.943 96.781 155.428 93.1319L150.477 93.8295L145.526 94.5272C146.421 100.878 149.555 106.058 154.773 109.768L157.67 105.693ZM150.477 93.8295L150.739 98.8227L165.024 98.0727L164.761 93.0795L164.499 88.0864L150.215 88.8364L150.477 93.8295ZM164.761 93.0795L159.863 94.0804C160.534 97.368 162.269 100.164 165.111 102.072L167.898 97.9205L170.684 93.769C170.208 93.4492 169.852 93.0184 169.66 92.0787L164.761 93.0795ZM167.898 97.9205L165.151 102.098C167.84 103.867 170.999 104.557 174.273 104.557V99.5568V94.5568C172.365 94.5568 171.273 94.156 170.645 93.7427L167.898 97.9205ZM174.273 99.5568V104.557C177.408 104.557 180.481 103.961 183.081 102.317L180.409 98.0909L177.737 93.8649C177.246 94.1751 176.228 94.5568 174.273 94.5568V99.5568ZM180.409 98.0909L183.097 102.307C185.779 100.597 187.743 97.8932 187.795 94.3111L182.795 94.2386L177.796 94.1662C177.796 94.1414 177.801 94.0748 177.827 93.9828C177.854 93.8897 177.893 93.8072 177.931 93.7448C178.01 93.6184 178.015 93.6873 177.721 93.8751L180.409 98.0909ZM182.795 94.2386L187.795 94.1524C187.744 91.2371 186.41 88.7609 184.178 87.0399L181.125 91L178.072 94.9601C178.115 94.9932 178.017 94.9259 177.917 94.7324C177.814 94.5323 177.797 94.3671 177.796 94.3248L182.795 94.2386ZM181.125 91L184.229 87.0798C182.235 85.5019 179.655 84.6387 177.06 84.1198L176.08 89.0227L175.099 93.9256C177.05 94.3158 177.833 94.7709 178.021 94.9202L181.125 91ZM176.08 89.0227L177.057 84.1191L167.988 82.3123L167.011 87.2159L166.034 92.1195L175.103 93.9263L176.08 89.0227ZM167.011 87.2159L167.992 82.313C163.421 81.3989 160.685 79.9352 159.142 78.3782L155.591 81.8977L152.039 85.4172C155.496 88.9057 160.374 90.9875 166.031 92.1188L167.011 87.2159ZM155.591 81.8977L159.158 78.3945C157.7 76.9094 156.875 75.0001 156.875 72.25H151.875H146.875C146.875 77.318 148.527 81.8406 152.023 85.401L155.591 81.8977ZM151.875 72.25H156.875C156.875 69.8432 157.505 68.025 158.607 66.5508L154.602 63.5568L150.598 60.5628C148.064 63.9522 146.875 67.9296 146.875 72.25H151.875ZM154.602 63.5568L158.589 66.5747C159.79 64.9875 161.571 63.6178 164.187 62.5786L162.341 57.9318L160.495 53.2851C156.475 54.8822 153.096 57.2625 150.616 60.539L154.602 63.5568ZM162.341 57.9318L164.176 62.5829C166.808 61.5444 170.07 60.9545 174.068 60.9545V55.9545V50.9545C169.112 50.9545 164.556 51.6829 160.506 53.2808L162.341 57.9318ZM174.068 55.9545V60.9545C180.033 60.9545 184.065 62.2207 186.717 64.1736L189.682 60.1477L192.647 56.1218C187.708 52.4839 181.33 50.9545 174.068 50.9545V55.9545ZM189.682 60.1477L186.728 64.182C189.412 66.1472 190.944 68.7162 191.407 72.2229L196.364 71.5682L201.321 70.9135C200.511 64.7838 197.588 59.7391 192.636 56.1134L189.682 60.1477ZM216.622 106.648L214.076 110.951L214.091 110.96L214.106 110.968L216.622 106.648ZM207.724 97.1705L203.277 99.4561L203.283 99.4662L207.724 97.1705ZM207.724 68.8409L212.166 71.1367L212.171 71.1265L207.724 68.8409ZM216.622 59.3636L219.149 63.6779L219.157 63.6733L216.622 59.3636ZM244.065 59.3636L241.519 63.6667L241.534 63.6756L241.549 63.6844L244.065 59.3636ZM252.997 68.8409L248.55 71.1265L248.555 71.1367L252.997 68.8409ZM252.997 97.1705L257.439 99.4662L257.444 99.4561L252.997 97.1705ZM244.065 106.648L246.593 110.962L246.6 110.957L244.065 106.648ZM236.463 96.7273L239.69 100.546L239.706 100.533L239.721 100.52L236.463 96.7273ZM240.111 91.0682L235.395 89.4064L235.388 89.4265L235.381 89.4466L240.111 91.0682ZM240.111 74.7727L235.381 76.3943L235.388 76.4144L235.395 76.4345L240.111 74.7727ZM224.293 69.1136L221.087 65.2768L221.073 65.2877L221.061 65.2987L224.293 69.1136ZM220.577 74.7727L215.861 73.111L215.854 73.131L215.847 73.1511L220.577 74.7727ZM220.577 91.0682L215.847 92.6898L215.854 92.7099L215.861 92.7299L220.577 91.0682ZM224.293 96.7273L221.061 100.542L221.089 100.566L221.118 100.59L224.293 96.7273ZM230.361 110.023V105.023C225.785 105.023 222.108 104.056 219.138 102.327L216.622 106.648L214.106 110.968C218.864 113.739 224.345 115.023 230.361 115.023V110.023ZM216.622 106.648L219.168 102.345C216.152 100.56 213.835 98.1043 212.166 94.8747L207.724 97.1705L203.283 99.4662C205.795 104.327 209.41 108.19 214.076 110.951L216.622 106.648ZM207.724 97.1705L212.171 94.8848C210.502 91.6363 209.588 87.7284 209.588 83.0227H204.588H199.588C199.588 89.0443 200.765 94.5682 203.277 99.4561L207.724 97.1705ZM204.588 83.0227H209.588C209.588 78.2632 210.505 74.3507 212.166 71.1367L207.724 68.8409L203.283 66.5452C200.762 71.422 199.588 76.9641 199.588 83.0227H204.588ZM207.724 68.8409L212.171 71.1265C213.841 67.8786 216.152 65.434 219.149 63.6779L216.622 59.3636L214.095 55.0494C209.411 57.7933 205.79 61.6668 203.277 66.5553L207.724 68.8409ZM216.622 59.3636L219.157 63.6733C222.123 61.9286 225.794 60.9545 230.361 60.9545V55.9545V50.9545C224.337 50.9545 218.848 52.2533 214.087 55.054L216.622 59.3636ZM230.361 55.9545V60.9545C234.929 60.9545 238.582 61.9289 241.519 63.6667L244.065 59.3636L246.612 55.0605C241.867 52.2529 236.384 50.9545 230.361 50.9545V55.9545ZM244.065 59.3636L241.549 63.6844C244.568 65.4426 246.885 67.8864 248.55 71.1265L252.997 68.8409L257.444 66.5553C254.928 61.6591 251.29 57.7847 246.582 55.0429L244.065 59.3636ZM252.997 68.8409L248.555 71.1367C250.217 74.3507 251.134 78.2632 251.134 83.0227H256.134H261.134C261.134 76.9641 259.96 71.422 257.439 66.5451L252.997 68.8409ZM256.134 83.0227H251.134C251.134 87.7284 250.22 91.6363 248.55 94.8848L252.997 97.1705L257.444 99.4561C259.956 94.5682 261.134 89.0443 261.134 83.0227H256.134ZM252.997 97.1705L248.555 94.8747C246.89 98.0966 244.568 100.551 241.53 102.338L244.065 106.648L246.6 110.957C251.29 108.199 254.922 104.335 257.439 99.4662L252.997 97.1705ZM244.065 106.648L241.538 102.333C238.598 104.056 234.937 105.023 230.361 105.023V110.023V115.023C236.375 115.023 241.851 113.739 246.593 110.962L244.065 106.648ZM230.429 98.7727V103.773C233.844 103.773 237.049 102.779 239.69 100.546L236.463 96.7273L233.236 92.9083C232.65 93.403 231.832 93.7727 230.429 93.7727V98.7727ZM236.463 96.7273L239.721 100.52C242.126 98.454 243.788 95.7605 244.841 92.6898L240.111 91.0682L235.381 89.4466C234.797 91.1486 234.028 92.2278 233.205 92.9348L236.463 96.7273ZM240.111 91.0682L244.827 92.7299C245.889 89.7136 246.372 86.4201 246.372 82.9205H241.372H236.372C236.372 85.5117 236.014 87.6501 235.395 89.4064L240.111 91.0682ZM241.372 82.9205H246.372C246.372 79.4208 245.889 76.1273 244.827 73.111L240.111 74.7727L235.395 76.4345C236.014 78.1908 236.372 80.3292 236.372 82.9205H241.372ZM240.111 74.7727L244.841 73.1511C243.788 70.0804 242.126 67.3869 239.721 65.3211L236.463 69.1136L233.205 72.9061C234.028 73.6131 234.797 74.6923 235.381 76.3943L240.111 74.7727ZM236.463 69.1136L239.721 65.3211C237.081 63.0524 233.865 62.0341 230.429 62.0341V67.0341V72.0341C231.811 72.0341 232.618 72.4022 233.205 72.9061L236.463 69.1136ZM230.429 67.0341V62.0341C226.981 62.0341 223.757 63.045 221.087 65.2768L224.293 69.1136L227.499 72.9504C228.146 72.4096 229.014 72.0341 230.429 72.0341V67.0341ZM224.293 69.1136L221.061 65.2987C218.635 67.3541 216.943 70.0395 215.861 73.111L220.577 74.7727L225.292 76.4345C225.892 74.7332 226.678 73.6459 227.525 72.9286L224.293 69.1136ZM220.577 74.7727L215.847 73.1511C214.817 76.1547 214.349 79.4339 214.349 82.9205H219.349H224.349C224.349 80.3161 224.7 78.1635 225.306 76.3943L220.577 74.7727ZM219.349 82.9205H214.349C214.349 86.407 214.817 89.6862 215.847 92.6898L220.577 91.0682L225.306 89.4466C224.7 87.6774 224.349 85.5249 224.349 82.9205H219.349ZM220.577 91.0682L215.861 92.7299C216.943 95.8014 218.635 98.4868 221.061 100.542L224.293 96.7273L227.525 92.9124C226.678 92.195 225.892 91.1077 225.292 89.4064L220.577 91.0682ZM224.293 96.7273L221.118 100.59C223.789 102.786 227.001 103.773 230.429 103.773V98.7727V93.7727C228.993 93.7727 228.114 93.396 227.467 92.8646L224.293 96.7273ZM265.577 109H260.577V114H265.577V109ZM265.577 56.6364V51.6364H260.577V56.6364H265.577ZM279.418 56.6364H284.418V51.6364H279.418V56.6364ZM279.418 65.875H274.418V70.875H279.418V65.875ZM280.031 65.875V70.875H283.56L284.742 67.55L280.031 65.875ZM285.486 58.6136L282.628 54.5106L282.628 54.5106L285.486 58.6136ZM303.793 58.6477L300.893 62.7213L300.906 62.7301L300.918 62.7387L303.793 58.6477ZM308.838 65.875L304.018 67.2058L305.032 70.875H308.838V65.875ZM309.384 65.875V70.875H312.911L314.094 67.5522L309.384 65.875ZM315.179 58.6818L317.881 62.8888L317.89 62.8833L315.179 58.6818ZM337.065 60.625L333.491 64.1212L333.504 64.1344L333.517 64.1475L337.065 60.625ZM341.668 109V114H346.668V109H341.668ZM327.179 109H322.179V114H327.179V109ZM324.861 70.1023L321.434 73.7433L321.434 73.7433L324.861 70.1023ZM312.895 70.4432L316.629 73.7682L316.64 73.7556L316.651 73.7429L312.895 70.4432ZM310.679 109V114H315.679V109H310.679ZM296.599 109H291.599V114H296.599V109ZM294.384 70.2045L290.768 73.6582L290.781 73.6722L290.795 73.6861L294.384 70.2045ZM284.259 69.1477L286.909 73.3877L286.919 73.3815L286.928 73.3752L284.259 69.1477ZM281.224 72.5227L285.654 74.8428L285.661 74.8285L285.668 74.8142L281.224 72.5227ZM280.099 109V114H285.099V109H280.099ZM265.577 109H270.577V56.6364H265.577H260.577V109H265.577ZM265.577 56.6364V61.6364H279.418V56.6364V51.6364H265.577V56.6364ZM279.418 56.6364H274.418V65.875H279.418H284.418V56.6364H279.418ZM279.418 65.875V70.875H280.031V65.875V60.875H279.418V65.875ZM280.031 65.875L284.742 67.55C285.502 65.4127 286.698 63.8624 288.343 62.7167L285.486 58.6136L282.628 54.5106C279.183 56.9103 276.742 60.2009 275.32 64.2L280.031 65.875ZM285.486 58.6136L288.343 62.7167C289.934 61.6087 291.947 60.9545 294.622 60.9545V55.9545V50.9545C290.206 50.9545 286.128 52.0731 282.628 54.5106L285.486 58.6136ZM294.622 55.9545V60.9545C297.345 60.9545 299.347 61.6208 300.893 62.7213L303.793 58.6477L306.692 54.5741C303.193 52.0838 299.081 50.9545 294.622 50.9545V55.9545ZM303.793 58.6477L300.918 62.7387C302.467 63.827 303.478 65.248 304.018 67.2058L308.838 65.875L313.658 64.5442C312.516 60.411 310.164 57.0139 306.667 54.5568L303.793 58.6477ZM308.838 65.875V70.875H309.384V65.875V60.875H308.838V65.875ZM309.384 65.875L314.094 67.5522C314.774 65.6419 315.973 64.1142 317.881 62.8888L315.179 58.6818L312.477 54.4748C308.794 56.8403 306.129 60.1081 304.673 64.1978L309.384 65.875ZM315.179 58.6818L317.89 62.8833C319.787 61.659 322.145 60.9545 325.168 60.9545V55.9545V50.9545C320.508 50.9545 316.207 52.0683 312.468 54.4803L315.179 58.6818ZM325.168 55.9545V60.9545C328.888 60.9545 331.505 62.0906 333.491 64.1212L337.065 60.625L340.64 57.1288C336.535 52.9321 331.219 50.9545 325.168 50.9545V55.9545ZM337.065 60.625L333.517 64.1475C335.397 66.0419 336.668 69.0039 336.668 73.7841H341.668H346.668C346.668 67.2006 344.87 61.39 340.614 57.1025L337.065 60.625ZM341.668 73.7841H336.668V109H341.668H346.668V73.7841H341.668ZM341.668 109V104H327.179V109V114H341.668V109ZM327.179 109H332.179V76.6477H327.179H322.179V109H327.179ZM327.179 76.6477H332.179C332.179 72.8878 331.166 69.17 328.288 66.4613L324.861 70.1023L321.434 73.7433C321.647 73.9436 322.179 74.5895 322.179 76.6477H327.179ZM324.861 70.1023L328.288 66.4613C325.725 64.0497 322.529 62.9205 319.065 62.9205V67.9205V72.9205C320.238 72.9205 320.905 73.2457 321.434 73.7433L324.861 70.1023ZM319.065 67.9205V62.9205C315.272 62.9205 311.736 64.1862 309.138 67.1435L312.895 70.4432L316.651 73.7429C317.008 73.3365 317.586 72.9205 319.065 72.9205V67.9205ZM312.895 70.4432L309.161 67.1182C306.693 69.8895 305.679 73.3609 305.679 77.0227H310.679H315.679C315.679 75.23 316.142 74.3151 316.629 73.7682L312.895 70.4432ZM310.679 77.0227H305.679V109H310.679H315.679V77.0227H310.679ZM310.679 109V104H296.599V109V114H310.679V109ZM296.599 109H301.599V76.3409H296.599H291.599V109H296.599ZM296.599 76.3409H301.599C301.599 72.7636 300.539 69.3683 297.972 66.723L294.384 70.2045L290.795 73.6861C291.183 74.0862 291.599 74.7819 291.599 76.3409H296.599ZM294.384 70.2045L297.999 66.7509C295.472 64.1049 292.175 62.9205 288.622 62.9205V67.9205V72.9205C289.842 72.9205 290.386 73.2587 290.768 73.6582L294.384 70.2045ZM288.622 67.9205V62.9205C286.116 62.9205 283.726 63.57 281.589 64.9203L284.259 69.1477L286.928 73.3752C287.381 73.0891 287.901 72.9205 288.622 72.9205V67.9205ZM284.259 69.1477L281.609 64.9077C279.505 66.2222 277.904 68.0523 276.78 70.2313L281.224 72.5227L285.668 74.8142C286.045 74.084 286.466 73.6642 286.909 73.3877L284.259 69.1477ZM281.224 72.5227L276.795 70.2027C275.604 72.4775 275.099 74.9851 275.099 77.5682H280.099H285.099C285.099 76.2876 285.345 75.4316 285.654 74.8428L281.224 72.5227ZM280.099 77.5682H275.099V109H280.099H285.099V77.5682H280.099ZM280.099 109V104H265.577V109V114H280.099V109ZM363.06 106.648L360.513 110.951L360.528 110.96L360.543 110.968L363.06 106.648ZM354.162 97.1705L349.715 99.4561L349.72 99.4662L354.162 97.1705ZM354.162 68.8409L358.604 71.1367L358.609 71.1265L354.162 68.8409ZM363.06 59.3636L365.587 63.6779L365.595 63.6733L363.06 59.3636ZM390.503 59.3636L387.957 63.6667L387.972 63.6756L387.987 63.6844L390.503 59.3636ZM399.435 68.8409L394.988 71.1265L394.993 71.1367L399.435 68.8409ZM399.435 97.1705L403.876 99.4662L403.882 99.4561L399.435 97.1705ZM390.503 106.648L393.03 110.962L393.038 110.957L390.503 106.648ZM382.901 96.7273L386.128 100.546L386.143 100.533L386.159 100.52L382.901 96.7273ZM386.548 91.0682L381.833 89.4064L381.825 89.4265L381.819 89.4466L386.548 91.0682ZM386.548 74.7727L381.819 76.3943L381.825 76.4144L381.833 76.4345L386.548 74.7727ZM370.73 69.1136L367.524 65.2768L367.511 65.2877L367.498 65.2987L370.73 69.1136ZM367.014 74.7727L362.298 73.111L362.291 73.131L362.284 73.1511L367.014 74.7727ZM367.014 91.0682L362.284 92.6898L362.291 92.7099L362.298 92.7299L367.014 91.0682ZM370.73 96.7273L367.498 100.542L367.526 100.566L367.555 100.59L370.73 96.7273ZM376.798 110.023V105.023C372.223 105.023 368.545 104.056 365.576 102.327L363.06 106.648L360.543 110.968C365.301 113.739 370.783 115.023 376.798 115.023V110.023ZM363.06 106.648L365.606 102.345C362.59 100.56 360.273 98.1043 358.604 94.8747L354.162 97.1705L349.72 99.4662C352.233 104.327 355.848 108.19 360.513 110.951L363.06 106.648ZM354.162 97.1705L358.609 94.8848C356.939 91.6363 356.026 87.7284 356.026 83.0227H351.026H346.026C346.026 89.0443 347.203 94.5682 349.715 99.4561L354.162 97.1705ZM351.026 83.0227H356.026C356.026 78.2632 356.943 74.3507 358.604 71.1367L354.162 68.8409L349.72 66.5452C347.2 71.422 346.026 76.9641 346.026 83.0227H351.026ZM354.162 68.8409L358.609 71.1265C360.278 67.8786 362.589 65.434 365.587 63.6779L363.06 59.3636L360.532 55.0494C355.848 57.7933 352.227 61.6668 349.715 66.5553L354.162 68.8409ZM363.06 59.3636L365.595 63.6733C368.561 61.9286 372.231 60.9545 376.798 60.9545V55.9545V50.9545C370.774 50.9545 365.286 52.2533 360.525 55.054L363.06 59.3636ZM376.798 55.9545V60.9545C381.366 60.9545 385.02 61.9289 387.957 63.6667L390.503 59.3636L393.049 55.0605C388.304 52.2529 382.821 50.9545 376.798 50.9545V55.9545ZM390.503 59.3636L387.987 63.6844C391.006 65.4426 393.322 67.8864 394.988 71.1265L399.435 68.8409L403.882 66.5553C401.365 61.6591 397.727 57.7847 393.019 55.0429L390.503 59.3636ZM399.435 68.8409L394.993 71.1367C396.654 74.3507 397.571 78.2632 397.571 83.0227H402.571H407.571C407.571 76.9641 406.397 71.422 403.876 66.5451L399.435 68.8409ZM402.571 83.0227H397.571C397.571 87.7284 396.657 91.6363 394.988 94.8848L399.435 97.1705L403.882 99.4561C406.394 94.5682 407.571 89.0443 407.571 83.0227H402.571ZM399.435 97.1705L394.993 94.8747C393.328 98.0966 391.005 100.551 387.968 102.338L390.503 106.648L393.038 110.957C397.728 108.199 401.36 104.335 403.876 99.4662L399.435 97.1705ZM390.503 106.648L387.976 102.333C385.035 104.056 381.375 105.023 376.798 105.023V110.023V115.023C382.813 115.023 388.289 113.739 393.03 110.962L390.503 106.648ZM376.866 98.7727V103.773C380.281 103.773 383.486 102.779 386.128 100.546L382.901 96.7273L379.673 92.9083C379.088 93.403 378.27 93.7727 376.866 93.7727V98.7727ZM382.901 96.7273L386.159 100.52C388.563 98.454 390.225 95.7605 391.278 92.6898L386.548 91.0682L381.819 89.4466C381.235 91.1486 380.465 92.2278 379.642 92.9348L382.901 96.7273ZM386.548 91.0682L391.264 92.7299C392.327 89.7136 392.81 86.4201 392.81 82.9205H387.81H382.81C382.81 85.5117 382.451 87.6501 381.833 89.4064L386.548 91.0682ZM387.81 82.9205H392.81C392.81 79.4208 392.327 76.1273 391.264 73.111L386.548 74.7727L381.833 76.4345C382.451 78.1908 382.81 80.3292 382.81 82.9205H387.81ZM386.548 74.7727L391.278 73.1511C390.225 70.0804 388.563 67.3869 386.159 65.3211L382.901 69.1136L379.642 72.9061C380.465 73.6131 381.235 74.6923 381.819 76.3943L386.548 74.7727ZM382.901 69.1136L386.159 65.3211C383.518 63.0524 380.302 62.0341 376.866 62.0341V67.0341V72.0341C378.249 72.0341 379.056 72.4022 379.642 72.9061L382.901 69.1136ZM376.866 67.0341V62.0341C373.418 62.0341 370.195 63.045 367.524 65.2768L370.73 69.1136L373.936 72.9504C374.583 72.4096 375.451 72.0341 376.866 72.0341V67.0341ZM370.73 69.1136L367.498 65.2987C365.072 67.3541 363.381 70.0395 362.298 73.111L367.014 74.7727L371.73 76.4345C372.329 74.7332 373.115 73.6459 373.962 72.9286L370.73 69.1136ZM367.014 74.7727L362.284 73.1511C361.255 76.1547 360.787 79.4339 360.787 82.9205H365.787H370.787C370.787 80.3161 371.137 78.1635 371.744 76.3943L367.014 74.7727ZM365.787 82.9205H360.787C360.787 86.407 361.255 89.6862 362.284 92.6898L367.014 91.0682L371.744 89.4466C371.137 87.6774 370.787 85.5249 370.787 82.9205H365.787ZM367.014 91.0682L362.298 92.7299C363.381 95.8014 365.072 98.4868 367.498 100.542L370.73 96.7273L373.962 92.9124C373.115 92.195 372.329 91.1077 371.73 89.4064L367.014 91.0682ZM370.73 96.7273L367.555 100.59C370.227 102.786 373.439 103.773 376.866 103.773V98.7727V93.7727C375.43 93.7727 374.552 93.396 373.905 92.8646L370.73 96.7273Z" fill="#0D1117" mask="url(#path-1-outside-1_196_71)"/>
<path d="M81 94.5C83.4853 94.5 85.5 96.5147 85.5 99V110C85.5 116.904 79.9036 122.5 73 122.5H67C60.0964 122.5 54.5 116.904 54.5 110V99C54.5 96.5147 56.5147 94.5 59 94.5H81Z" fill="#FAF1DC" stroke="#0D1117" stroke-width="5"/>
<rect x="66" y="117" width="8" height="22" rx="4" fill="#FAF1DC"/>
<rect x="63.5" y="114.5" width="13" height="27" rx="6.5" fill="#FAF1DC" stroke="#0D1117" stroke-width="5"/>
<rect x="168.5" y="107.5" width="13" height="34" rx="6.5" fill="#FAF1DC" stroke="#0D1117" stroke-width="5"/>
<rect x="89.5156" y="57.5" width="12.5" height="32.0161" rx="6.25" transform="rotate(90 89.5156 57.5)" fill="#FAF1DC" stroke="#0D1117" stroke-width="5"/>
<rect x="27.4645" y="36.3037" width="12.5" height="31.5003" rx="6.25" transform="rotate(-45 27.4645 36.3037)" fill="#FAF1DC" stroke="#0D1117" stroke-width="5"/>
<rect x="181.5" y="128.5" width="13" height="118" rx="6.5" transform="rotate(90 181.5 128.5)" fill="#FAF1DC" stroke="#0D1117" stroke-width="5"/>
<mask id="path-10-outside-2_196_71" maskUnits="userSpaceOnUse" x="0" y="0" width="140" height="116" fill="black">
<rect fill="white" width="140" height="116"/>
<path d="M124 5C130.075 5 135 9.92487 135 16V100C135 106.075 130.075 111 124 111H106V105C106 102.239 103.761 100 101 100H39C36.2386 100 34 102.239 34 105V111H16C9.92487 111 5 106.075 5 100V16C5 9.92487 9.92487 5 16 5H124ZM21 16C18.2386 16 16 18.2386 16 21V81C16 83.7614 18.2386 86 21 86H119C121.761 86 124 83.7614 124 81V21C124 18.2386 121.761 16 119 16H21Z"/>
</mask>
<path d="M124 5C130.075 5 135 9.92487 135 16V100C135 106.075 130.075 111 124 111H106V105C106 102.239 103.761 100 101 100H39C36.2386 100 34 102.239 34 105V111H16C9.92487 111 5 106.075 5 100V16C5 9.92487 9.92487 5 16 5H124ZM21 16C18.2386 16 16 18.2386 16 21V81C16 83.7614 18.2386 86 21 86H119C121.761 86 124 83.7614 124 81V21C124 18.2386 121.761 16 119 16H21Z" fill="#FAF1DC"/>
<path d="M135 16L140 16V16L135 16ZM135 100L140 100V100H135ZM106 111H101V116H106V111ZM106 105L111 105L106 105ZM39 100L39 95L39 95L39 100ZM34 105L29 105V105H34ZM34 111V116H39V111H34ZM5 100L0 100L5 100ZM5 16L0 16V16H5ZM21 16L21 11L21 11L21 16ZM16 21L11 21V21H16ZM16 81L11 81L11 81L16 81ZM21 86L21 91H21V86ZM119 86L119 91L119 91L119 86ZM124 81L129 81V81H124ZM124 21L129 21V21L124 21ZM119 16L119 11H119V16ZM124 5V10C127.314 10 130 12.6863 130 16L135 16L140 16C140 7.16344 132.837 0 124 0V5ZM135 16H130V100H135H140V16H135ZM135 100L130 100C130 103.314 127.314 106 124 106V111V116C132.837 116 140 108.837 140 100L135 100ZM124 111V106H106V111V116H124V111ZM106 111H111V105H106H101V111H106ZM106 105L111 105C111 99.4772 106.523 95 101 95V100V105V105L106 105ZM101 100V95H39V100V105H101V100ZM39 100L39 95C33.4772 95 29 99.4772 29 105L34 105L39 105L39 105L39 100ZM34 105H29V111H34H39V105H34ZM34 111V106H16V111V116H34V111ZM16 111V106C12.6863 106 10 103.314 10 100L5 100L0 100C1.40565e-07 108.837 7.16344 116 16 116V111ZM5 100H10V16H5H0V100H5ZM5 16L10 16C10 12.6863 12.6863 10 16 10L16 5L16 0C7.16344 0 7.49704e-07 7.16345 0 16L5 16ZM16 5V10H124V5V0H16V5ZM21 16L21 11C15.4772 11 11 15.4772 11 21L16 21L21 21L21 21L21 16ZM16 21H11V81H16H21V21H16ZM16 81L11 81C11 86.5228 15.4772 91 21 91L21 86L21 81L21 81L16 81ZM21 86V91H119V86V81H21V86ZM119 86L119 91C124.523 91 129 86.5228 129 81L124 81L119 81L119 81L119 86ZM124 81H129V21H124H119V81H124ZM124 21L129 21C129 15.4772 124.523 11 119 11L119 16L119 21L119 21L124 21ZM119 16V11H21V16V21H119V16Z" fill="#0D1117" mask="url(#path-10-outside-2_196_71)"/>
<rect x="66" y="111" width="8" height="24" fill="#FAF1DC"/>
<rect x="57" y="100" width="26" height="5" fill="#FAF1DC"/>
<path d="M192 102C192 104.122 190.104 106.157 186.728 107.657C183.352 109.157 178.774 110 174 110C169.226 110 164.648 109.157 161.272 107.657C157.896 106.157 156 104.122 156 102L174 102H192Z" fill="#FAF1DC"/>
<rect x="171" y="104" width="8" height="35" rx="4" fill="#FAF1DC"/>
<rect x="50.1035" y="41.2672" width="12.5" height="32.0161" rx="6.25" transform="rotate(45 50.1035 41.2672)" fill="#FAF1DC" stroke="#0D1117" stroke-width="5"/>
<rect x="31" y="36.3037" width="7.5" height="26.5003" rx="3.75" transform="rotate(-45 31 36.3037)" fill="#FAF1DC"/>
<circle cx="70" cy="109" r="13" fill="#FAF1DC"/>
</svg>
